<svg width="40" height="30" viewBox="0 0 40 30" fill="none" 
    xmlns="http://www.w3.org/2000/svg">
    <path d="M29.662 4.4243C29.2115 3.97372 28.4809 3.97372 28.0302 4.4243L9.32647 23.1281L1.96972 15.7713C1.51919 15.3207 0.788586 15.3207 0.33794 15.7713C-0.112647 16.2219 -0.112647 16.9524 0.33794 17.4031L8.51067 25.5758C8.96108 26.0262 9.69192 26.0263 10.1425 25.5758L29.662 6.05609C30.1126 5.60544 30.1126 4.87489 29.662 4.4243Z" fill="#888888"/>
    <path d="M39.662 4.4243C39.2115 3.97372 38.4809 3.97372 38.0302 4.4243L19.3265 23.1281L11.9697 15.7713C11.5192 15.3207 10.7886 15.3207 10.3379 15.7713C9.88735 16.2219 9.88735 16.9524 10.3379 17.4031L18.5107 25.5758C18.9611 26.0262 19.6919 26.0263 20.1425 25.5758L39.662 6.05609C40.1126 5.60544 40.1126 4.87489 39.662 4.4243Z" fill="#888888"/>
</svg>
